<?xml version="1.0" encoding="iso-8859-1"?>
<!-- Generator: Adobe Illustrator 19.0.0, SVG Export Plug-In . SVG Version: 6.00 Build 0)  -->
<svg xmlns="http://www.w3.org/2000/svg" xmlns:xlink="http://www.w3.org/1999/xlink" version="1.1" id="Layer_1" x="0px" y="0px" viewBox="0 0 512 512" style="enable-background:new 0 0 512 512;" xml:space="preserve" width="512px" height="512px">
<g>
	<g>
		<path d="M257.856,129.342c-32.135,0-58.28,26.145-58.28,58.28c0,32.135,26.145,58.28,58.28,58.28    c32.137,0,58.28-26.145,58.28-58.28C316.136,155.486,289.993,129.342,257.856,129.342z" fill="#131c86"/>
	</g>
</g>
<g>
	<g>
		<path d="M445.478,188.102l-39.547-39.75l14.651-54.125l-54.126-14.651l-14.374-54.199L297.884,39.75L258.336,0l-39.75,39.548    l-54.125-14.651L149.81,79.021L95.611,93.395l14.374,54.199l-39.75,39.548l39.548,39.75l-14.651,54.125l54.125,14.651    l14.374,54.199l54.199-14.374l39.548,39.75l39.75-39.548l54.126,14.651l14.65-54.125l54.199-14.374l-14.373-54.199    L445.478,188.102z M257.856,278.777c-50.263,0-91.155-40.892-91.155-91.155c0-50.263,40.892-91.155,91.155-91.155    c50.264,0,91.155,40.892,91.155,91.155C349.011,237.885,308.12,278.777,257.856,278.777z" fill="#ffffff"/>
	</g>
</g>
<g>
	<g>
		<polygon points="416.898,305.373 383.751,314.164 372.407,356.074 366.681,377.23 345.525,371.504 303.613,360.157     272.833,390.781 257.296,406.238 256.191,405.127 299.059,511.999 375.923,438.913 472.527,444.058   " fill="#ffffff"/>
	</g>
</g>
<g>
	<g>
		<polygon points="241.839,390.702 211.215,359.922 169.248,371.052 148.063,376.669 142.445,355.486 131.314,313.517     95.702,303.877 39.473,444.058 136.078,438.913 212.941,512 255.919,404.854   " fill="#ffffff"/>
	</g>
</g>
<g>
</g>
<g>
</g>
<g>
</g>
<g>
</g>
<g>
</g>
<g>
</g>
<g>
</g>
<g>
</g>
<g>
</g>
<g>
</g>
<g>
</g>
<g>
</g>
<g>
</g>
<g>
</g>
<g>
</g>
</svg>
